<?xml version="1.0" encoding="UTF-8" standalone="no"?>
<svg
   xmlns:dc="http://purl.org/dc/elements/1.1/"
   xmlns:cc="http://creativecommons.org/ns#"
   xmlns:rdf="http://www.w3.org/1999/02/22-rdf-syntax-ns#"
   xmlns:svg="http://www.w3.org/2000/svg"
   xmlns="http://www.w3.org/2000/svg"
   viewBox="0 0 6666.6665 6666.6665"
   height="6666.6665"
   width="6666.6665"
   xml:space="preserve"
   id="svg2"
   version="1.1"><metadata
     id="metadata8"><rdf:RDF><cc:Work
         rdf:about=""><dc:format>image/svg+xml</dc:format><dc:type
           rdf:resource="http://purl.org/dc/dcmitype/StillImage" /></cc:Work></rdf:RDF></metadata><defs
     id="defs6" /><g
     transform="matrix(1.3333333,0,0,-1.3333333,0,6666.6667)"
     id="g10"><g
       transform="scale(0.1)"
       id="g12"><g
         transform="scale(3.06748)"
         id="g14"></g><g
         transform="scale(2.26771)"
         id="g18"><path
           id="path20"
           style="fill:rgb(31,87,184);fill-opacity:1;fill-rule:nonzero;stroke:none"
           d="m 16172.5,7874.06 c -41.5,18.39 -86.6,44.54 -129.8,56.45 -49.3,13.58 -106.8,9.26 -157.7,10.36 -84.8,1.85 -168.7,-0.27 -253.3,-3.18 -162.5,-5.51 -324.8,-10.62 -487.2,-15.39 -264.9,-7.8 -529.9,-13.36 -794.7,-19.93 1.3,15.08 2.6,30.12 4,45.2 3.5,39.16 -0.6,78.01 -2.9,117.17 -4.5,75.14 -8.7,150.28 -12.6,225.42 -7.7,147.29 -14.4,294.62 -20.1,441.99 -11.3,294.7 -18.6,589.58 -21.8,884.5 -3.2,294.88 -2,589.85 0.4,884.65 2.5,294.9 12.9,589.4 19.7,884.2 3.7,165.2 2.9,330.5 6.4,495.7 1.8,84.1 4.2,168.2 6.8,252.2 2.6,83.7 11.2,168.9 1.9,252 -4.7,43.1 -14.6,85.8 -48.3,116.7 -27.2,25 -57.9,40.4 -94.7,45.3 -80.4,10.9 -158.8,-38.4 -181,-118.1 -23.3,-83.8 -28.3,-173.4 -38.2,-259.9 -8.6,-75 -17,-150.1 -25,-225.1 -15.9,-147.1 -31.2,-294.3 -45.3,-441.6 -28.4,-296.5 -38.2,-595.5 -49.2,-893.1 -22.1,-592.4 -20.9,-1185.65 -5.2,-1778.19 4.4,-165.45 10.1,-330.82 17,-496.18 3.5,-84.14 7.4,-168.32 11.6,-252.46 3,-60.28 4.2,-120.78 16.1,-180.22 0.8,-3.97 1.6,-7.98 2.4,-11.95 -436.7,-10.72 -873.5,-19.1 -1310.3,-24.7 -4.5,44.06 -12.5,87.84 -18.7,128.81 -6.7,44.23 -13.2,88.5 -19.5,132.78 -41.7,351.76 -66.7,705.51 -93.3,1058.64 -13.6,179.92 -22.3,359.39 -25.4,539.8 -3.2,181.41 -3.7,362.87 -1.3,544.27 2.7,203.1 10.8,406 17.8,609 3.6,105.1 -92.6,196.6 -195.7,195.7 -201.8,-1.7 -404,0.4 -605.8,-5.2 -49.6,-1.3 -99.8,-8.8 -149.3,-13.5 -51.2,-4.9 -102.1,-9.1 -153.6,-10.7 -101,-3.1 -202,-5.7 -302.9,-11.1 -55.8,-3 -111.2,-6.1 -166.8,-12.1 -29.3,-3.2 -58.6,-6.3 -87.8,-9.4 -14.6,-1.6 -29.3,-2.8 -43.9,-4.4 -31.6,-3.4 -54.8,-13.3 -74.5,-32.6 -2.7,-2 -5.4,-4 -8.1,-6.1 -20.1,-15 -33.2,-30.5 -36.6,-56 -3,-21.9 2.6,-49.7 21.1,-64.4 3.3,-2.7 6.6,-5.3 9.9,-7.9 6.4,-5.8 7.1,-5.4 2.3,1.2 3.7,-4.9 7.5,-9.7 11.2,-14.5 13.2,-13.1 28.7,-22.2 46.6,-27.1 31.7,-4.6 37.4,-5.2 17.1,-2 4.2,-0.6 8.5,-1.2 12.7,-1.8 9.9,-1.4 19.8,-2.8 29.8,-4.1 36.7,-5.1 73.6,-10.3 110.4,-15.4 88,-12.1 177.6,-18.9 266.4,-24.4 78.9,-4.9 158,-9.3 237,-14.7 80.6,-5.5 161.3,-19.3 241.5,-29.4 -16,2.1 -31.9,4.3 -47.8,6.4 65.4,-9.8 131.1,-10.6 197,-13.3 52.7,-2.1 105.4,-4.2 158.1,-6.2 35.5,-1.5 71,-2.9 106.5,-4.3 -22.8,-344.5 -30.4,-690.8 -31,-1035.65 -0.4,-204.56 -3.3,-409.13 -2.3,-613.7 1.1,-202.89 12.6,-405.96 25,-608.41 7,-112.84 17.2,-225.51 23.8,-338.31 3.4,-57.77 6.6,-115.54 10.4,-173.26 1.3,-20.82 3.2,-41.5 5.4,-62.18 -529.5,-4.72 -1059.1,-7.58 -1588.7,-7.54 0.2,17.86 0.3,35.76 0.4,53.76 0.4,51.41 0.8,102.78 1.2,154.2 0.8,101.29 1.6,202.63 2.4,303.92 1.6,202.67 3.8,405.26 2.5,607.93 -2.7,406.71 -5.4,813.46 -8.1,1220.24 -0.3,57.2 -5.3,114.6 -8.4,171.8 -3.1,57.3 -5.8,114.6 -11.2,171.7 -6.3,66 -12.9,131.7 -23.7,197.2 -4.5,28 -9.4,55.9 -14.5,83.9 -6,33.6 -22,65.1 -37.6,95.3 -34.1,65.9 -137.9,64.2 -172.4,0 -6.3,-11.8 -31.1,-50.7 -27.5,-58.8 -3,-7.4 -2.4,-6 1.9,4.2 -3.3,-8 -6.7,-15.9 -10.1,-24 -2.3,-7.9 -3.3,-17 -4.9,-25.1 -5.8,-29.3 -11.2,-58.7 -16.5,-88.2 -13.2,-72.6 -19.6,-146.3 -27.7,-219.7 1.9,14.9 4,29.8 6,44.7 -13.7,-100.8 -17.6,-203.1 -24.7,-304.6 -6.3,-89.2 -5.5,-179.3 -7.4,-268.69 -4.1,-179.17 -8.1,-358.29 -12.1,-537.42 -8,-358.33 -14.6,-716.45 -17.4,-1074.87 -0.8,-101.29 -1.6,-202.63 -2.5,-303.92 -0.4,-49.92 -0.7,-99.88 -1.1,-149.79 -0.2,-17.69 -0.3,-35.37 -0.5,-53.1 -362.22,1.15 -724.44,3.84 -1086.65,8.38 11.73,19.67 21.03,40.26 26.68,60.77 14.73,53.4 4.98,110.02 0.79,164.13 -5.6,72.32 -10.98,144.68 -16.14,217.04 -10.41,146.23 -19.97,292.54 -28.62,438.9 -17.11,289.81 -37.17,579.4 -50,869.43 -25.63,579.54 -33.3,1160.24 -29.06,1740.34 1.19,163.4 -1.2,327.2 -3.27,490.6 -0.97,80.2 -4.72,160.4 -6.79,240.5 -2.2,85.2 1.28,172.8 -8.82,257.6 0.8,-5.7 1.55,-11.4 2.3,-17 -6.49,50.8 -10.76,102.2 -23.6,151.8 -4.76,18.4 -8.51,37.4 -14.2,55.4 -9.87,31.3 -30.56,52.1 -51.81,75.1 -32.59,35.3 -87.36,29.7 -120.74,0 -16.23,-14.5 -33.03,-27.4 -44.32,-46.7 -12.26,-20.9 -19,-48 -27.25,-71 -13.49,-37.4 -22.18,-74.4 -30.91,-113.2 -19.23,-85.4 -21.96,-177.1 -30.6,-264.2 -15.35,-154.2 -28.27,-308 -36.87,-462.7 -16.98,-305.3 -22.49,-610.7 -25,-916.5 -5.03,-613.9 5.73,-1228.04 27.03,-1841.52 6,-172.64 17.68,-345.24 28.49,-517.57 5.42,-86.26 11.15,-172.42 17.19,-258.63 3,-43.04 5.34,-86.3 9.62,-129.25 2.82,-20.86 5.64,-41.72 8.42,-62.57 5.51,-19.58 13.19,-37.84 22.97,-54.86 -45.02,0.75 -90,1.45 -135.02,2.25 -357.23,6.39 -714.42,14.55 -1071.61,24.52 -181.46,5.07 -363.85,6.57 -545.4,2.99 -184.37,-3.57 -366.97,1.94 -547.29,-40.79 -82.64,-19.58 -71.21,-131.41 0,-156.28 158.49,-55.34 322.84,-67.25 488.86,-86.25 161.97,-18.48 324.47,-32.24 486.97,-44.98 317.41,-24.91 636.63,-35.63 954.66,-50.98 636.46,-30.73 1273.18,-55.91 1910.09,-75.76 1280,-39.95 2560.4,-44.31 3840.8,-27.6 357.4,4.67 714.7,14.33 1072,25.09 181.9,5.51 363.8,11.42 545.7,17.86 91,3.22 182.1,4.72 272.8,13.41 45.4,4.36 91,8.24 136.4,13.36 73.1,8.2 127.5,38.01 190.1,72.05 112.4,61.12 127.5,260.84 0,317.37" /></g><g
         transform="scale(2.14256)" 
         id="g22"><path
           id="path24"
           style="fill:rgb(31,87,184);fill-opacity:1;fill-rule:nonzero;stroke:none"
           d="m 16106.9,7352.94 c -68.5,17.78 -146.4,42.84 -217.1,39.06 -65.4,-3.5 -131.2,-13.67 -196.4,-20.21 -126,-12.65 -252,-24.59 -378.2,-35.89 -252.4,-22.64 -504.6,-46.9 -757.3,-66.93 -500.1,-39.58 -1001.1,-65.85 -1502.5,-82.14 -501.2,-16.24 -1002.8,-23.1 -1504.3,-20.12 -253.2,1.5 -506.5,5.65 -759.6,12.46 -248,6.68 -495.9,21.61 -743.9,27.4 -283.39,6.58 -565.99,13.96 -849.11,28.89 -141.19,7.47 -282.75,8.96 -424.03,13.63 -145.57,4.81 -293.95,8.07 -436.95,-21.14 -40.75,-8.31 -72.16,-49.99 -76.78,-89.1 -4.53,-38.09 12.04,-90.27 51.15,-106.84 31.09,-13.16 63.01,-30.52 95.12,-40.51 28.24,-8.82 59,-12.93 87.89,-19.27 29.26,-6.4 58.58,-12.79 87.89,-19.09 14.56,-3.18 29.17,-7.24 43.82,-9.99 45.98,-5.93 55.92,-7.33 29.87,-4.2 9.94,-1.5 19.84,-2.94 29.78,-4.44 124.2,-18.34 248.49,-36.08 372.87,-53.07 262.59,-35.84 527.74,-52.31 791.25,-79.85 503.33,-52.56 1012.63,-64.27 1518.43,-76.5 1008.2,-24.41 2015.6,0.23 3022.4,58.11 282.8,16.29 566.2,33.18 848.4,59.09 141.2,12.97 282.4,26.83 423.5,41.44 70.6,7.33 141.1,14.56 211.6,22.64 31.3,3.55 64.2,3.83 94.4,12.55 31.1,9.01 65.3,27.59 96.1,41.03 29.9,13.02 58.5,28.14 87.4,43.13 147.4,76.21 109,309.72 -45.7,349.86" /></g><g
         transform="scale(2.21841)"
         id="g26"><path
           id="path28"
           style="fill:rgb(31,87,184);fill-opacity:1;fill-rule:nonzero;stroke:none"
           d="m 9457.17,14655.1 c 3.29,282.3 7.35,564.6 9.92,846.9 0.72,78.2 1.26,156.2 1.89,234.3 0.41,55.6 -2.07,112.6 0.05,168.7 88.35,7 178.33,6.1 266.36,4.4 44.09,-0.9 88.08,-1.9 132.08,-3.6 -1.67,-127.8 -3.25,-255.7 -2.39,-383.5 1.22,-189.8 2.48,-379.7 3.74,-569.5 0.36,-53.8 0.72,-107.6 1.08,-161.4 0.23,-37.4 3.92,-72.4 8.88,-109.4 -45.26,-38.8 -90.51,-77.5 -135.77,-116.3 -96.6,-82.8 -193.2,-165.5 -289.8,-248.2 1.3,112.5 2.66,225.1 3.96,337.6 z M 7474.58,12192 c 9.79,1.8 19.57,3.6 29.39,5.3 23.22,1.9 47.38,3.6 67.98,10.4 46.75,15.5 82.67,48.4 120.76,78.3 33.27,26 66.49,52 99.76,78 67.66,53 135.32,105.9 202.98,158.9 136.05,106.5 267.13,219.7 400.15,330 264.97,219.6 530.2,438.8 793.45,660.4 261.95,220.6 523.94,441.1 785.88,661.8 263.07,221.5 526.17,443 789.27,664.5 263.2,221.6 526.2,443.1 789.3,664.6 32.2,27.1 64.4,54.2 96.6,81.3 24.6,20.8 43.3,53.6 54.9,88.1 0.5,-0.6 1,-1.1 1.5,-1.6 62.5,-62.8 129,-121.2 194.6,-180.6 132.4,-119.9 264.8,-239.8 397.2,-359.6 264.9,-239.9 532.8,-476.3 800.8,-712.7 267,-235.3 533.9,-470.7 800.9,-706.2 268.1,-236.4 536.2,-472.7 804.3,-709.1 267,-235.4 533.9,-470.8 800.9,-706.2 47.1,-41.5 95.3,-80.2 147.5,-115 47,-31.2 127.9,-40.9 181.2,-23.7 49.6,16.1 90.2,42.9 122.2,84.3 30.7,39.7 52.8,91 50.5,142.5 -2.9,64.8 -26.2,117.2 -68.9,166.3 -59,67.9 -130.4,124.2 -198,183.5 -66.7,58.4 -133.3,116.9 -200,175.3 -134.4,117.8 -268.8,235.6 -403.2,353.4 -267.8,234.7 -535.5,469.3 -803.2,704 -267.7,234.6 -535.4,469.3 -803.1,703.9 -267.8,234.7 -534.5,470.6 -805.4,701.8 -136.1,116.2 -272.2,232.3 -408.3,348.4 -67.5,57.6 -134.9,115.2 -202.4,172.8 -78.9,67.4 -162.3,129.3 -244.6,192.4 -24.4,18.8 -48.9,37.6 -73.4,56.4 -17.8,19.1 -38.9,32.6 -63.4,40.6 -23.6,12.4 -49,18 -76.3,17 -48.6,0 -106.7,-21.5 -140.2,-58 -34.6,-37.8 -60.4,-87.4 -58,-140.2 0.3,-7.4 1,-14.8 1.9,-22.1 -12.4,-1.7 -24.9,-3.4 -37.4,-5.1 -39.6,-11.1 -74,-31.1 -103.2,-60.1 -263.3,-225.5 -526.6,-451.1 -789.9,-676.6 -84,-72 -168,-143.9 -252,-215.9 -0.2,58.7 -0.4,117.3 -0.6,175.9 -0.5,189.9 -1,379.7 -4.8,569.5 -2.1,107.6 -4.3,215.2 -6.4,322.8 -0.9,49.2 -20.9,106 -58,140.1 -40.1,36.8 -85.4,54.6 -140,58 -99.99,6.2 -201.23,10.2 -301.35,5.2 -114.09,-5.7 -227.42,-18.6 -340.47,-34.3 -54.54,-7.6 -104.13,-18.5 -153.62,-45 -67.71,-36.1 -116.08,-101.5 -137.53,-174.4 -15.19,-51.7 -14.92,-107.3 -14.79,-160.8 0.09,-51.1 0.23,-102.1 0.36,-153.2 0.95,-408.5 4.1,-816.9 6.58,-1225.4 0.36,-58.5 0.72,-117.1 1.08,-175.7 0.37,-56.9 -1.57,-114.4 1.81,-171.2 2.21,-36.4 3.33,-73.1 5.59,-109.7 -60.81,-52.1 -121.62,-104.2 -182.43,-156.3 -263.25,-225.4 -524.88,-452.7 -786.33,-680.2 -130.14,-113.3 -260.28,-226.5 -390.41,-339.8 -65.55,-57 -128.74,-116.7 -192.62,-175.6 -62.7,-57.7 -127.43,-113.9 -188.38,-173.5 -46.38,-45.3 -58.01,-110.7 -79.02,-169.6 -15.1,-42.3 2.48,-94.6 33.09,-125.2 34.62,-34.6 78.89,-41.6 125.22,-33.1" /></g><g
         transform="scale(1.64982)"
         id="g30"><path
           id="path32"
           style="fill:rgb(31,87,184);fill-opacity:1;fill-rule:nonzero;stroke:none"
           d="m 15968,12754.8 c -2.4,-0.3 -4.8,-0.6 -7.1,-1 2.3,0.5 4.6,0.8 7.1,1 z m -201.8,194.2 c 0.1,0.1 0.1,0.1 0.1,0.2 0.1,0.4 0.3,0.7 0.4,1 -0.2,-0.4 -0.3,-0.8 -0.5,-1.2 z m 93.3,-426.1 c 58.7,-21.1 132.7,-21.5 192.4,-3.6 81.7,24.5 149.1,78.8 194.8,150.4 35.4,55.3 51.3,122.9 52.8,188 0.5,22.6 -5.7,57.1 -11.3,79.3 -10.6,43.1 -40,90.8 -72,122.6 -21.2,21.1 -47,42.2 -73.1,56.3 -81.1,43.8 -177,47.3 -257.9,0 -2.6,-1.5 -4.9,-3.2 -7.4,-4.7 -19.5,-0.8 -39.4,-3.7 -60.8,-10 -83.5,-24.7 -143.6,-85.7 -176.8,-164.2 -35.7,-84.9 -22.6,-185.9 26.2,-263.9 45.9,-73.2 112.5,-121.5 193.1,-150.2" /></g></g></g></svg>