<?xml version="1.0" encoding="utf-8"?>
<!-- Generator: Adobe Illustrator 23.0.2, SVG Export Plug-In . SVG Version: 6.00 Build 0)  -->
<svg version="1.1" id="Слой_1" xmlns:xodm="http://www.corel.com/coreldraw/odm/2003"
	 xmlns="http://www.w3.org/2000/svg" xmlns:xlink="http://www.w3.org/1999/xlink" x="0px" y="0px" viewBox="0 0 756 576"
	 style="enable-background:new 0 0 756 576;" xml:space="preserve">
<path d="M225.1,8.9c-0.6-0.2-1.2-0.4-1.8-0.7c-0.5,0.4-1,0.7-1.5,1.1c0-0.6,0.1-1.2,0.1-1.9c-0.5-0.4-1-0.8-1.5-1.1
	c0.6-0.2,1.2-0.3,1.8-0.5c0.2-0.6,0.4-1.2,0.6-1.8c0.3,0.5,0.7,1,1,1.6c0.6,0,1.3,0,1.9,0c-0.4,0.5-0.8,1-1.2,1.5
	C224.7,7.8,224.9,8.3,225.1,8.9z M48.1,215.7c-1.9-1.1-0.3-4,1.6-2.9C51.6,213.9,50,216.8,48.1,215.7z M538,95.9
	c-0.9,4.8-8.1,3.3-7.2-1.4C531.7,89.7,538.9,91.1,538,95.9z M488.9,347.2c0.6-2.6,4.6-1.6,3.9,1
	C492.2,350.7,488.2,349.8,488.9,347.2z M319.4,110c0.3,1.9-2.6,2.4-3,0.5C316.2,108.5,319.1,108.1,319.4,110z M70.2,161.8
	c-1,2.3-3.6,3.3-5.8,2.4c-2.3-1-3.3-3.6-2.4-5.8c1-2.3,3.6-3.3,5.8-2.4C70,156.9,71.1,159.5,70.2,161.8z M146.2,232.4
	c1-3.6,6.5-2.1,5.5,1.6C150.7,237.5,145.2,236,146.2,232.4z M333.1,69.5c0.3-1.9,3.1-1.5,2.9,0.4C335.7,71.8,332.8,71.4,333.1,69.5z
	 M605.8,136.3c1.4,1.1-0.4,3.2-1.7,2.1C602.6,137.3,604.4,135.2,605.8,136.3z M258.6,250.1c-4-3.9,2-10,6-6.1
	C268.6,247.9,262.6,254,258.6,250.1z M368.2,73.7c-3.7-1.4-1.5-7.1,2.2-5.6C374.1,69.5,371.9,75.2,368.2,73.7z M114.1,289.2
	c-4.4,0.3-4.8-6.4-0.4-6.6C118,282.3,118.4,288.9,114.1,289.2z M400.2,52.1c-2.2-0.1-2-3.5,0.2-3.3
	C402.6,48.9,402.4,52.2,400.2,52.1z M47.2,27c1.8-2.2,5.1,0.6,3.3,2.8C48.7,32,45.4,29.2,47.2,27z M321.6,366.5
	c-4.2-3.8,1.6-10.2,5.8-6.4C331.6,363.9,325.8,370.3,321.6,366.5z M147,53.3c2.7,2.6-1.2,6.7-3.9,4.1
	C140.4,54.8,144.3,50.7,147,53.3z M752.6,210.8c2.3,4.1-3.9,7.6-6.2,3.5C744.1,210.2,750.3,206.7,752.6,210.8z M605.1,71.2
	c-1.2-1.6-0.9-4,0.7-5.2c1.6-1.3,4-0.9,5.2,0.7c1.3,1.6,0.9,4-0.7,5.2C608.7,73.1,606.4,72.8,605.1,71.2z M634.9,51.6
	c4-0.2,4.3,6,0.2,6.1C631.1,57.8,630.8,51.7,634.9,51.6z M701.4,103.4c-2,5.1-9.6,2.1-7.7-3C695.7,95.4,703.4,98.3,701.4,103.4z
	 M163.1,107.3c0.5,3.9-5.4,4.6-5.9,0.7C156.7,104.1,162.6,103.4,163.1,107.3z M294.9,132.1c-2.5,2.3-5.9-1.5-3.4-3.7
	C293.9,126.1,297.3,129.8,294.9,132.1z M218.7,151.9c0-1.2,1.8-1.3,1.9-0.1C220.6,153.1,218.7,153.2,218.7,151.9z M651.4,182.7
	c-2.9-0.7-1.8-5,1-4.3C655.3,179,654.2,183.3,651.4,182.7z M569.4,432.7c0.6,1.1-1.1,2.1-1.7,0.9C567,432.5,568.8,431.6,569.4,432.7
	z M223.4,42.6c1,3.1-3.7,4.6-4.7,1.5C217.7,41,222.4,39.5,223.4,42.6z M663.4,126.6c-2-3.1,2.7-6.2,4.7-3.1
	C670.1,126.6,665.4,129.7,663.4,126.6z M733.9,38.9c-3.6-0.6-2.7-6,0.9-5.4C738.4,34,737.5,39.5,733.9,38.9z M242.7,324
	c1,1.4-1.2,2.9-2.2,1.5C239.6,324,241.7,322.6,242.7,324z M674.1,335.3c2.9-0.8,4.1,3.7,1.2,4.4C672.4,340.5,671.2,336,674.1,335.3z
	 M202.2,259.8c-0.8,0.5-1.6-0.7-0.8-1.2C202.2,258.1,203,259.3,202.2,259.8z M607,209.6c1.2-1.2,3,0.6,1.8,1.8
	C607.6,212.5,605.8,210.7,607,209.6z M184.7,78.5c-1.6-1.3,0.3-3.8,1.9-2.5C188.3,77.3,186.4,79.8,184.7,78.5z M443.5,103.4
	c0.5-1.1,2.1-0.3,1.6,0.7C444.6,105.3,443,104.5,443.5,103.4z M431.6,69.1c0.4,3.4-4.8,3.9-5.1,0.6
	C426.1,66.3,431.2,65.7,431.6,69.1z M384.2,305.9c0.8,1.2-1,2.3-1.8,1.2C381.7,305.9,383.4,304.7,384.2,305.9z M271,373
	c1.9-0.2,2.3,2.6,0.4,2.9C269.5,376.1,269.1,373.3,271,373z M255,44.3c-0.8-0.7,0.2-2,1.1-1.3C256.9,43.8,255.8,45.1,255,44.3z
	 M684.7,189c-1.3,2.6-5.3,0.6-4-2C682.1,184.4,686,186.4,684.7,189z M24.9,2.6c2.4,0.7,1.3,4.3-1.1,3.6C21.5,5.5,22.5,1.9,24.9,2.6z
	 M722.9,77.2c-1.3-1,0.2-2.9,1.5-2C725.7,76.2,724.2,78.1,722.9,77.2z M269.9,166.8c-2.2-0.7-4.4-1.3-6.7-2
	c-0.4,2.3-0.8,4.6-1.1,6.8c-0.1-2.3-0.1-4.6-0.2-6.9c-2.3,0.3-4.6,0.7-6.9,1c2.2-0.8,4.4-1.5,6.5-2.3c-1-2.1-2.1-4.1-3.1-6.2
	c1.4,1.8,2.8,3.7,4.2,5.5c1.7-1.6,3.3-3.2,4.9-4.9c-1.3,1.9-2.6,3.8-3.9,5.7C265.8,164.7,267.9,165.7,269.9,166.8z M465,302.1
	c2.1,0.4,4.2,0.7,6.3,1.1c0.1-2.1,0.2-4.3,0.3-6.4c0.3,2.1,0.6,4.2,0.9,6.3c2.1-0.6,4.1-1.1,6.2-1.7c-1.9,1-3.8,1.9-5.7,2.9
	c1.2,1.8,2.4,3.6,3.5,5.3c-1.5-1.5-3-3-4.5-4.6c-1.3,1.7-2.7,3.3-4,5c1-1.9,2-3.8,3-5.7C469,303.5,467,302.8,465,302.1L465,302.1z
	 M414.6,329.4c1.4,5.5,2.8,10.9,4.2,16.4c5.3-2.1,10.5-4.2,15.8-6.3c-4.8,3-9.5,6.1-14.3,9.1c3.6,4.4,7.2,8.7,10.8,13.1
	c-4.4-3.6-8.7-7.2-13.1-10.8c-3,4.8-6,9.5-9.1,14.3c2.1-5.3,4.1-10.5,6.2-15.8c-5.5-1.4-10.9-2.8-16.4-4.2c5.6,0.3,11.3,0.7,16.9,1
	C415.3,340.7,415,335.1,414.6,329.4L414.6,329.4z M336.3,394.2c-1.8-0.2-3.6-0.3-5.4-0.5c0.1,1.8,0.1,3.6,0.2,5.4
	c-0.4-1.8-0.8-3.5-1.2-5.3c-1.7,0.6-3.4,1.3-5.1,1.9c1.5-0.9,3.1-1.9,4.6-2.8c-1.1-1.4-2.2-2.8-3.4-4.2c1.4,1.2,2.7,2.4,4.1,3.5
	c1-1.5,2-3,3-4.5c-0.7,1.7-1.4,3.3-2.1,5C332.8,393.3,334.6,393.7,336.3,394.2z M521.6,123.8c-1.8-0.5-3.6-1.1-5.4-1.6
	c-0.3,1.9-0.6,3.7-0.9,5.6c0-1.9-0.1-3.8-0.1-5.7c-1.9,0.3-3.7,0.6-5.6,0.8c1.8-0.6,3.6-1.3,5.3-1.9c-0.8-1.7-1.7-3.4-2.5-5.1
	c1.1,1.5,2.3,3,3.4,4.5c1.3-1.3,2.7-2.6,4-4c-1.1,1.6-2.1,3.1-3.2,4.7C518.3,122,519.9,122.9,521.6,123.8L521.6,123.8z M226.3,92.4
	c0.4,1.7,0.8,3.3,1.2,5c1.6-0.6,3.2-1.2,4.8-1.8c-1.5,0.9-2.9,1.8-4.4,2.7c1.1,1.3,2.2,2.7,3.2,4c-1.3-1.1-2.6-2.2-3.9-3.3
	c-0.9,1.4-1.9,2.9-2.8,4.3c0.7-1.6,1.3-3.2,2-4.8c-1.7-0.4-3.3-0.9-5-1.3c1.7,0.1,3.4,0.3,5.1,0.4C226.5,95.8,226.4,94.1,226.3,92.4
	L226.3,92.4z M11.5,298c2.1-1,4.1-2,6.1-2.9c-1.2-1.9-2.4-3.8-3.7-5.7c1.6,1.6,3.1,3.3,4.7,4.9c1.4-1.8,2.9-3.5,4.3-5.3
	c-1.1,2-2.2,4-3.3,6c2.1,0.8,4.2,1.7,6.3,2.5c-2.2-0.4-4.5-0.8-6.7-1.2c-0.1,2.3-0.3,4.5-0.4,6.8c-0.3-2.3-0.6-4.5-0.9-6.8
	C15.9,296.9,13.7,297.5,11.5,298L11.5,298z M105.7,407.7c2-0.8,4-1.7,6-2.5c-1.1-1.9-2.1-3.7-3.2-5.6c1.4,1.6,2.8,3.3,4.2,4.9
	c1.4-1.6,2.9-3.2,4.3-4.8c-1.1,1.8-2.2,3.7-3.4,5.5c2,0.9,3.9,1.8,5.9,2.6c-2.1-0.5-4.2-1-6.3-1.5c-0.2,2.1-0.5,4.3-0.7,6.4
	c-0.2-2.1-0.4-4.3-0.5-6.4C109.9,406.8,107.8,407.2,105.7,407.7L105.7,407.7z M85.1,105c-5.2-0.6-10.4-1.2-15.6-1.8
	c0.1,5.2,0.1,10.5,0.2,15.7c-1-5.1-2.1-10.3-3.1-15.4c-5,1.7-9.9,3.3-14.9,5c4.6-2.6,9.1-5.2,13.7-7.7c-3.1-4.2-6.2-8.4-9.4-12.6
	c3.9,3.5,7.7,7.1,11.6,10.6c3-4.3,6.1-8.5,9.1-12.8c-2.2,4.8-4.3,9.5-6.5,14.3C75.2,101.9,80.1,103.4,85.1,105z M285.9,92.1
	c-1.4-5.8-2.7-11.5-4.1-17.3c-5.5,2.1-11.1,4.2-16.6,6.2c5-3.1,10.1-6.2,15.1-9.2c-3.7-4.6-7.4-9.3-11.1-13.9
	c4.5,3.8,9,7.7,13.5,11.5c3.3-4.9,6.5-9.9,9.8-14.8c-2.3,5.5-4.5,10.9-6.8,16.4c5.7,1.6,11.4,3.2,17.1,4.7
	c-5.9-0.5-11.8-0.9-17.7-1.4C285.4,80.3,285.7,86.2,285.9,92.1z M652.7,254.7c-4.7-0.2-9.4-0.4-14.1-0.6c0.4,4.7,0.8,9.4,1.2,14.1
	c-1.3-4.5-2.5-9.1-3.8-13.6c-4.3,1.8-8.7,3.6-13,5.5c3.9-2.6,7.9-5.2,11.8-7.8c-3.1-3.6-6.2-7.1-9.2-10.7c3.7,2.9,7.4,5.9,11.1,8.8
	c2.4-4,4.9-8.1,7.3-12.1c-1.6,4.4-3.3,8.8-4.9,13.3C643.5,252.5,648.1,253.6,652.7,254.7L652.7,254.7z M539.8,35.1
	c1.4-5.7,2.8-11.4,4.2-17.1c-5.8-0.7-11.6-1.4-17.4-2.1c5.8-0.4,11.7-0.8,17.5-1.3c-1.1-5.7-2.3-11.5-3.4-17.2
	c2.2,5.4,4.4,10.9,6.6,16.3c5.1-2.9,10.2-5.7,15.3-8.6c-4.5,3.8-9,7.5-13.4,11.3c4.3,4,8.6,8,12.9,11.9c-5-3.1-9.9-6.2-14.9-9.3
	C544.7,24.5,542.2,29.8,539.8,35.1L539.8,35.1z M576.5,186.4c1.2-2,2.5-4,3.7-6.1c-2.2-1-4.3-2-6.5-2.9c2.3,0.6,4.6,1.1,6.9,1.7
	c0.3-2.4,0.5-4.7,0.8-7.1c0.2,2.4,0.4,4.7,0.6,7.1c2.3-0.5,4.7-1,7-1.4c-2.2,0.9-4.4,1.8-6.6,2.7c1.2,2.1,2.3,4.1,3.5,6.2
	c-1.5-1.8-3.1-3.6-4.6-5.4C579.7,182.8,578.1,184.6,576.5,186.4L576.5,186.4z M371,130.5c-6.1-2.3-12.2-4.6-18.3-6.9
	c-1.5,6.3-3,12.7-4.5,19c0.3-6.5,0.6-13,0.9-19.5c-6.5,0.5-13,1-19.5,1.6c6.3-1.7,12.5-3.5,18.8-5.2c-2.5-6-5-12-7.5-18
	c3.6,5.4,7.2,10.9,10.8,16.3c4.9-4.2,9.9-8.5,14.8-12.7c-4.1,5.1-8.1,10.2-12.2,15.3C359.9,123.7,365.5,127.1,371,130.5z
	 M26.4,204.7c-2.1-4.8-4.3-9.7-6.4-14.5c-4.5,2.7-9.1,5.4-13.6,8.2c3.9-3.5,7.9-7.1,11.8-10.6c-4-3.5-8-6.9-12-10.4
	c4.6,2.7,9.1,5.3,13.7,8c2.1-4.9,4.1-9.7,6.2-14.6c-1.1,5.2-2.2,10.3-3.3,15.5c5.3,0.5,10.5,0.9,15.8,1.4
	c-5.3,0.5-10.5,1.1-15.8,1.6C24,194.4,25.2,199.6,26.4,204.7L26.4,204.7z M173.8,8.8c3.1,4.3,6.3,8.5,9.4,12.8
	c3.8-3.6,7.7-7.3,11.5-10.9c-3.1,4.3-6.2,8.6-9.3,12.9c4.6,2.5,9.3,5.1,13.9,7.6c-5-1.6-10.1-3.2-15.1-4.8c-1,5.2-2,10.4-2.9,15.6
	c0-5.3,0-10.6-0.1-15.9c-5.2,0.7-10.5,1.4-15.7,2c5-1.7,10.1-3.3,15.1-5C178.3,18.4,176.1,13.6,173.8,8.8L173.8,8.8z M249,12.8
	c2.1-0.1,4.1-0.1,6.2-0.2c-0.3-2-0.7-4.1-1-6.1c0.7,2,1.4,3.9,2.1,5.9c1.8-0.9,3.7-1.9,5.5-2.8c-1.6,1.3-3.3,2.6-4.9,3.8
	c1.5,1.5,2.9,2.9,4.4,4.4c-1.7-1.2-3.4-2.3-5.2-3.5c-0.9,1.9-1.9,3.7-2.8,5.6c0.6-2,1.1-4,1.7-6C253.1,13.5,251,13.2,249,12.8z
	 M93.7,341.3c-1.3,4.7-2.5,9.3-3.8,14c4.8,0.7,9.5,1.4,14.3,2c-4.8,0.2-9.6,0.5-14.4,0.7c0.8,4.7,1.7,9.5,2.5,14.2
	c-1.7-4.5-3.4-9-5.1-13.5c-4.3,2.3-8.5,4.5-12.8,6.8c3.8-3,7.5-6,11.3-9.1c-3.5-3.4-6.9-6.7-10.4-10.1c4,2.6,8.1,5.3,12.1,7.9
	C89.5,349.9,91.6,345.6,93.7,341.3L93.7,341.3z M90.9,177.6c0.2-2.5,0.4-5.1,0.6-7.6c-2.6,0.1-5.1,0.3-7.7,0.4
	c2.5-0.6,5-1.2,7.4-1.8c-0.9-2.4-1.8-4.8-2.7-7.2c1.3,2.2,2.7,4.3,4,6.5c2-1.6,4-3.2,6-4.8c-1.7,2-3.3,3.9-5,5.9
	c2.1,1.4,4.3,2.8,6.4,4.2c-2.4-1-4.7-1.9-7.1-2.9C92.2,172.7,91.5,175.1,90.9,177.6z M717.4,11.5c-2-0.1-3.9-0.3-5.9-0.4
	c0.1,2,0.2,3.9,0.3,5.9c-0.5-1.9-0.9-3.8-1.4-5.8c-1.8,0.7-3.7,1.4-5.5,2.1c1.7-1,3.4-2.1,5-3.1c-1.2-1.5-2.5-3.1-3.7-4.6
	c1.5,1.3,3,2.6,4.5,3.8c1.1-1.7,2.2-3.3,3.2-5c-0.7,1.8-1.5,3.7-2.2,5.5C713.6,10.5,715.5,11,717.4,11.5z M126.4,97
	c2.3,1,4.5,1.9,6.8,2.9c0.7-2.4,1.3-4.8,2-7.1c-0.2,2.5-0.4,4.9-0.6,7.4c2.5-0.1,4.9-0.2,7.4-0.3c-2.4,0.6-4.8,1.1-7.2,1.7
	c0.9,2.3,1.7,4.6,2.6,7c-1.3-2.1-2.5-4.2-3.8-6.3c-1.9,1.5-3.9,3.1-5.8,4.6c1.6-1.9,3.2-3.7,4.9-5.6C130.5,99.8,128.4,98.4,126.4,97
	z M675.8,73.3c-1.7,1.7-3.3,3.4-5,5.1c1.9,1.4,3.8,2.9,5.7,4.3c-2.1-1-4.2-2.1-6.4-3.1c-0.8,2.2-1.5,4.5-2.3,6.7
	c0.3-2.3,0.7-4.7,1-7c-2.4,0-4.7-0.1-7.1-0.1c2.3-0.4,4.7-0.8,7-1.2c-0.7-2.3-1.4-4.5-2.1-6.8c1.1,2.1,2.2,4.2,3.3,6.3
	C671.9,76,673.9,74.6,675.8,73.3L675.8,73.3z M148.1,3.8c-0.9,2.7-1.8,5.4-2.7,8.1c2.8,0.6,5.6,1.1,8.4,1.7c-2.9,0-5.7,0-8.6-0.1
	c0.3,2.8,0.7,5.7,1,8.5c-0.9-2.7-1.7-5.4-2.6-8.2c-2.6,1.2-5.2,2.4-7.8,3.6c2.3-1.7,4.6-3.3,7-5c-1.9-2.1-3.9-4.2-5.8-6.3
	c2.3,1.7,4.6,3.4,6.9,5.1C145.3,8.8,146.7,6.3,148.1,3.8L148.1,3.8z M370.9,31.9c-3.2,0.6-6.4,1.3-9.6,1.9c0.4,3.2,0.8,6.5,1.3,9.7
	c-1.6-2.8-3.2-5.7-4.8-8.5c-2.9,1.4-5.9,2.8-8.8,4.2c2.2-2.4,4.4-4.8,6.7-7.2c-2.2-2.4-4.5-4.7-6.7-7.1c3,1.4,5.9,2.7,8.9,4.1
	c1.6-2.9,3.1-5.7,4.7-8.6c-0.4,3.2-0.8,6.5-1.2,9.7C364.5,30.7,367.7,31.3,370.9,31.9L370.9,31.9z M297.1,276
	c-1.4,1.5-2.8,2.9-4.1,4.4c1.4,1.5,2.7,2.9,4.1,4.4c-1.8-0.9-3.6-1.7-5.4-2.6c-1,1.8-2,3.5-2.9,5.3c0.3-2,0.5-4,0.8-6
	c-2-0.4-3.9-0.8-5.9-1.2c2-0.4,4-0.7,5.9-1.1c-0.2-2-0.5-4-0.7-6c1,1.8,1.9,3.5,2.9,5.3C293.4,277.7,295.3,276.9,297.1,276
	L297.1,276z M163.3,329.9c-4.5-0.5-9-0.9-13.6-1.4c-0.8,4.5-1.5,9-2.3,13.5c-1-4.4-1.9-8.9-2.9-13.3c-4.5,0.7-9,1.3-13.5,2
	c3.9-2.3,7.9-4.6,11.8-6.8c-2-4.1-4-8.1-6.1-12.2c3.4,3,6.8,6.1,10.2,9.1c3.2-3.2,6.5-6.4,9.7-9.5c-1.8,4.2-3.7,8.3-5.5,12.5
	C155.3,325.7,159.3,327.8,163.3,329.9L163.3,329.9z M11.8,43.9c3-1.1,6.1-2.2,9.1-3.3c-0.9-3.1-1.8-6.2-2.7-9.3
	c2,2.5,3.9,5.1,5.9,7.6c2.7-1.8,5.3-3.6,8-5.4c-1.8,2.7-3.6,5.3-5.4,8c2.5,2,5.1,4,7.6,5.9c-3.1-0.9-6.2-1.8-9.3-2.7
	c-1.1,3-2.2,6-3.3,9.1c-0.1-3.2-0.2-6.4-0.3-9.6C18.3,44.1,15.1,44,11.8,43.9z M485.7,89c-1.7,0.3-3.4,0.6-5.2,0.9
	c0.2,1.7,0.4,3.5,0.6,5.2c-0.8-1.5-1.7-3.1-2.5-4.6c-1.6,0.7-3.2,1.5-4.8,2.2c1.2-1.3,2.4-2.5,3.6-3.8c-1.2-1.3-2.4-2.6-3.5-3.9
	c1.6,0.8,3.2,1.5,4.7,2.3c0.9-1.5,1.7-3,2.6-4.6c-0.2,1.7-0.5,3.5-0.7,5.2C482.3,88.3,484,88.7,485.7,89L485.7,89z M682.6,261
	c-1.3-1.1-2.6-2.2-3.9-3.3c-1.2,1.2-2.3,2.5-3.5,3.7c0.6-1.6,1.3-3.2,1.9-4.8c-1.5-0.7-3.1-1.5-4.6-2.2c1.7,0.1,3.4,0.2,5.1,0.3
	c0.2-1.7,0.4-3.4,0.6-5.1c0.4,1.7,0.9,3.3,1.3,5c1.7-0.3,3.4-0.6,5-1c-1.4,0.9-2.9,1.8-4.3,2.7C681,258,681.8,259.5,682.6,261
	L682.6,261z M505.4,51.1c2.8,1.7,5.6,3.4,8.4,5.1c1.9-2.7,3.8-5.4,5.7-8c-0.8,3.2-1.5,6.4-2.3,9.6c3.1,1,6.3,1.9,9.4,2.9
	c-3.3,0.3-6.5,0.5-9.8,0.8c0,3.3,0.1,6.6,0.1,9.8c-1.3-3-2.5-6.1-3.8-9.1c-3.1,1.1-6.2,2.1-9.3,3.2c2.5-2.1,5-4.3,7.5-6.4
	C509.3,56.3,507.4,53.7,505.4,51.1L505.4,51.1z M31.2,118.4c1.1,2.6,2.2,5.1,3.3,7.7c2.6-0.9,5.3-1.9,7.9-2.8
	c-2.1,1.8-4.2,3.7-6.3,5.5c1.7,2.2,3.4,4.4,5.1,6.6c-2.4-1.4-4.8-2.8-7.2-4.3c-1.6,2.3-3.2,4.6-4.7,6.9c0.6-2.7,1.2-5.4,1.8-8.2
	c-2.7-0.8-5.3-1.6-8-2.4c2.8-0.3,5.6-0.5,8.3-0.8C31.3,124,31.3,121.2,31.2,118.4z M663.8,19.3c0.4,5.1,0.8,10.1,1.2,15.2
	c5.1-0.1,10.2-0.1,15.2-0.2c-4.7,1.9-9.4,3.9-14.1,5.8c1.6,4.8,3.3,9.6,4.9,14.4c-3.3-3.9-6.6-7.7-9.9-11.6c-4.1,3-8.1,6.1-12.2,9.1
	c2.7-4.3,5.3-8.7,8-13c-4.2-2.9-8.3-5.9-12.5-8.8c4.9,1.2,9.9,2.4,14.8,3.6C660.8,29,662.3,24.2,663.8,19.3z M401,9.8
	c-1.1,1.6-2.2,3.2-3.3,4.9c1.5,1.2,3.1,2.4,4.6,3.6c-1.9-0.5-3.8-1.1-5.6-1.6c-0.7,1.8-1.3,3.7-2,5.5c-0.1-2-0.1-3.9-0.2-5.9
	c-2-0.1-3.9-0.1-5.9-0.2c1.8-0.7,3.7-1.3,5.5-2c-0.5-1.9-1.1-3.8-1.6-5.6c1.2,1.5,2.4,3.1,3.6,4.6C397.8,12,399.4,10.9,401,9.8
	L401,9.8z M109.6,105c0.5,1.4,1.1,2.7,1.6,4.1c1.4-0.5,2.8-0.9,4.2-1.4c-1.1,0.9-2.3,1.9-3.4,2.8c0.9,1.2,1.7,2.4,2.6,3.6
	c-1.2-0.8-2.5-1.6-3.7-2.3c-0.9,1.2-1.7,2.4-2.6,3.6c0.4-1.4,0.7-2.8,1.1-4.3c-1.4-0.5-2.8-0.9-4.2-1.4c1.5-0.1,2.9-0.2,4.4-0.3
	C109.6,108,109.6,106.5,109.6,105z M426.9,28c2.2-2.9,4.4-5.9,6.5-8.8c-2.8-2.4-5.6-4.7-8.3-7.1c3.5,1.2,6.9,2.3,10.4,3.5
	c1.4-3.4,2.8-6.7,4.2-10.1c0,3.6-0.1,7.3-0.1,10.9c3.6,0.3,7.3,0.6,10.9,0.8c-3.5,1.1-7,2.2-10.4,3.3c0.9,3.5,1.7,7.1,2.6,10.6
	c-2.1-3-4.2-6-6.3-8.9C433.1,24.2,430,26.1,426.9,28L426.9,28z M596.4,254.2c-2.3,4.3-4.6,8.5-6.9,12.8c4.1,2.6,8.2,5.1,12.3,7.7
	c-4.8-0.9-9.5-1.7-14.3-2.6c-1.2,4.7-2.3,9.4-3.5,14.1c-0.7-4.8-1.3-9.6-2-14.4c-4.8,0.3-9.6,0.7-14.5,1c4.4-2.1,8.7-4.2,13.1-6.3
	c-1.8-4.5-3.6-9-5.4-13.4c3.3,3.5,6.7,7,10,10.5C589,260.4,592.7,257.3,596.4,254.2L596.4,254.2z M429.8,188.9
	c1.6-1.2,3.2-2.3,4.8-3.5c-1.1-1.7-2.1-3.3-3.2-5c1.6,1.2,3.2,2.3,4.8,3.5c1.3-1.5,2.5-3,3.8-4.6c-0.6,1.9-1.2,3.8-1.8,5.6
	c1.8,0.7,3.7,1.5,5.5,2.2c-2,0-4,0-5.9,0c-0.1,2-0.3,3.9-0.4,5.9c-0.6-1.9-1.2-3.8-1.8-5.6C433.6,187.9,431.7,188.4,429.8,188.9
	L429.8,188.9z M372.4,231.3c2.5,1.3,5,2.7,7.5,4c1.5-2.4,3-4.8,4.5-7.2c-0.5,2.8-1,5.6-1.5,8.4c2.7,0.7,5.5,1.4,8.2,2.1
	c-2.8,0.4-5.6,0.8-8.4,1.1c0.2,2.8,0.4,5.6,0.6,8.5c-1.2-2.6-2.5-5.1-3.7-7.7c-2.6,1.1-5.2,2.1-7.9,3.2c2-2,4.1-3.9,6.1-5.9
	C376.1,235.7,374.2,233.5,372.4,231.3L372.4,231.3z M707.2,215.2c1.5-0.1,3-0.3,4.5-0.4c0-1.5-0.1-3-0.1-4.5
	c0.6,1.4,1.2,2.7,1.8,4.1c1.4-0.5,2.8-1,4.2-1.5c-1.1,1-2.2,2-3.4,3c0.9,1.2,1.8,2.4,2.8,3.6c-1.3-0.8-2.6-1.5-3.9-2.3
	c-0.8,1.2-1.7,2.5-2.5,3.7c0.3-1.5,0.6-2.9,1-4.4C710.1,216.1,708.6,215.7,707.2,215.2L707.2,215.2z M291.2,13c1-1.7,2-3.4,2.9-5.2
	c-1.7-1.1-3.3-2.2-5-3.3c1.9,0.4,3.9,0.8,5.8,1.2c0.5-1.9,1-3.8,1.6-5.7c0.2,2,0.4,3.9,0.7,5.9c2-0.1,4-0.2,5.9-0.3
	c-1.8,0.8-3.6,1.6-5.4,2.5c0.7,1.9,1.4,3.7,2.1,5.6c-1.3-1.5-2.7-2.9-4-4.4C294.3,10.5,292.8,11.8,291.2,13z M652,108
	c-5.2-0.1-10.3-0.3-15.5-0.4c-0.5,5.1-0.9,10.3-1.4,15.5c-1.5-5-2.9-9.9-4.4-14.9c-5,1.1-10.1,2.3-15.1,3.4
	c4.3-2.9,8.5-5.9,12.8-8.8c-2.6-4.4-5.3-8.9-7.9-13.3c4.1,3.2,8.2,6.3,12.3,9.5c3.4-3.9,6.8-7.8,10.2-11.7
	c-1.7,4.9-3.5,9.7-5.2,14.6C642.5,103.9,647.3,105.9,652,108L652,108z M332.3,212.7c-1.3,0.7-2.7,1.3-4,2c0.6,1.4,1.2,2.8,1.7,4.1
	c-1-1.1-2.1-2.1-3.1-3.2c-1.1,1-2.3,1.9-3.4,2.9c0.7-1.3,1.4-2.6,2.1-4c-1.3-0.8-2.6-1.6-3.8-2.3c1.5,0.2,2.9,0.5,4.4,0.7
	c0.3-1.5,0.7-2.9,1-4.4c0.2,1.5,0.4,3,0.7,4.4C329.3,213,330.8,212.8,332.3,212.7L332.3,212.7z M232.7,218.2
	c-3.3-1.1-6.7-2.1-10-3.2c-1.3,3.3-2.6,6.5-3.8,9.8c0-3.5,0-7-0.1-10.5c-3.5-0.2-7-0.4-10.5-0.6c3.3-1.1,6.7-2.2,10-3.3
	c-0.9-3.4-1.8-6.8-2.7-10.2c2.1,2.8,4.2,5.7,6.3,8.5c3-1.9,5.9-3.8,8.9-5.7c-2,2.9-4.1,5.7-6.1,8.6C227.3,213.7,230,216,232.7,218.2
	L232.7,218.2z M352.9,311.9c-3.2-3.9-6.4-7.9-9.6-11.8c-4.1,2.9-8.3,5.9-12.4,8.8c2.8-4.3,5.5-8.5,8.3-12.8c-4.1-3-8.1-6.1-12.2-9.1
	c4.9,1.3,9.8,2.6,14.7,3.9c1.6-4.8,3.2-9.6,4.9-14.4c0.3,5.1,0.5,10.1,0.8,15.2c5.1,0.1,10.2,0.1,15.2,0.2
	c-4.7,1.8-9.5,3.7-14.2,5.5C349.8,302.2,351.3,307.1,352.9,311.9L352.9,311.9z M339.1,0.7c-0.5,1.3-1,2.5-1.5,3.8
	c1.2,0.6,2.5,1.1,3.7,1.7c-1.4-0.1-2.7-0.2-4.1-0.2c-0.2,1.3-0.3,2.7-0.5,4c-0.3-1.3-0.7-2.6-1-3.9c-1.3,0.3-2.7,0.5-4,0.8
	c1.1-0.7,2.3-1.5,3.4-2.2c-0.7-1.2-1.3-2.4-2-3.6c1.1,0.9,2.1,1.7,3.2,2.6C337.2,2.7,338.2,1.7,339.1,0.7z M81.3,27.4
	c2.3,2.3,4.6,4.5,6.8,6.8c2.4-2.1,4.8-4.3,7.2-6.4c-1.5,2.9-2.9,5.7-4.4,8.6c2.8,1.6,5.5,3.3,8.3,4.9c-3.2-0.5-6.3-1-9.5-1.5
	c-0.7,3.1-1.4,6.3-2.1,9.4c-0.5-3.2-1-6.3-1.5-9.5c-3.2,0.3-6.4,0.6-9.6,0.9c2.9-1.5,5.7-2.9,8.6-4.4C83.9,33.3,82.6,30.3,81.3,27.4
	z M484.1,231c1.7-1.1,3.5-2.3,5.2-3.4c-1-1.8-2-3.6-3-5.4c1.6,1.3,3.2,2.6,4.8,3.9c1.4-1.5,2.8-3,4.2-4.6c-0.7,1.9-1.5,3.9-2.2,5.8
	c1.9,0.9,3.8,1.7,5.6,2.6c-2.1-0.1-4.1-0.2-6.2-0.3c-0.2,2.1-0.5,4.1-0.7,6.2c-0.5-2-1.1-4-1.6-6C488.1,230.2,486.1,230.6,484.1,231
	z M176.8,208.4c0.2,3.7-5.4,4-5.6,0.3C171,205,176.6,204.7,176.8,208.4z M163.1,352.7c-0.5-3,4.2-3.8,4.6-0.7
	C168.2,355,163.6,355.7,163.1,352.7z M115.6,14.3c-0.6-2,2.5-2.9,3.1-0.9C119.3,15.5,116.2,16.4,115.6,14.3z M636.3,14.6
	c-3.3,1.3-5.3-3.6-2-5C637.5,8.3,639.5,13.2,636.3,14.6z M687.9,413.6c-1.2,0.1-1.3-1.7-0.2-1.8
	C688.9,411.7,689.1,413.5,687.9,413.6z M364.7,339.8c1.6-1.1,3.3,1.4,1.7,2.5C364.8,343.4,363.1,340.9,364.7,339.8z M565.4,343
	c2.4-0.6,3.3,3.1,0.9,3.6C563.9,347.3,563,343.6,565.4,343z M14.4,239.6c1.2,1.4-0.9,3.2-2.1,1.8C11.1,240.1,13.1,238.2,14.4,239.6z
	 M213,387c1.2,2.2-2.1,4-3.3,1.9C208.4,386.7,211.7,384.8,213,387z M528.5,334.6c0.6,1.7-2,2.5-2.5,0.8
	C525.4,333.8,528,333,528.5,334.6z M476.3,12.4c2.6-0.8,3.8,3.1,1.2,3.9C475,17.1,473.8,13.2,476.3,12.4z M583,5.1
	c0,2.5-3.8,2.4-3.8-0.1C579.2,2.5,583,2.6,583,5.1z M198.3,312.8c-0.7,1.3-2.7,0.2-1.9-1.1C197.1,310.4,199,311.5,198.3,312.8z
	 M560.1,51.9c-1.8,0-1.7-2.7,0.1-2.7C561.9,49.2,561.8,51.9,560.1,51.9z M185.7,134.6c1.3-1,2.7,1,1.5,1.9
	C185.8,137.4,184.4,135.5,185.7,134.6z M259.9,117.9c2.4,1.5,0.1,5.1-2.3,3.6C255.2,120,257.5,116.4,259.9,117.9z M50.5,313.2
	c-3.3,1-4.8-4-1.6-5C52.3,307.2,53.8,312.2,50.5,313.2z M548.3,153.3c2.3,0.2,2,3.6-0.3,3.5C545.8,156.6,546,153.1,548.3,153.3z
	 M646.8,332.3c1,0.5,0.3,2-0.7,1.5C645.2,333.3,645.9,331.8,646.8,332.3z M695.1,44.8c1-3,5.7-1.4,4.6,1.6
	C698.7,49.4,694,47.8,695.1,44.8z M593.3,362.1c-1.3-0.1-1.1-2.1,0.2-2C594.7,360.2,594.6,362.2,593.3,362.1z M146.6,165.7
	c2.8,1.1,1.1,5.3-1.7,4.2C142.1,168.9,143.8,164.6,146.6,165.7z M303.5,178c1.2-1.1,2.9,0.7,1.7,1.8
	C303.9,181,302.3,179.1,303.5,178z M470.7,52.8c-0.5,1-2.1,0.2-1.5-0.8C469.6,51,471.2,51.8,470.7,52.8z M716.4,319
	c-0.2-0.7-0.3-1.4-0.5-2c-0.7-0.2-1.3-0.5-2-0.7c0.6-0.4,1.2-0.8,1.8-1.1c0-0.7,0.1-1.4,0.1-2.1c0.5,0.4,1.1,0.9,1.6,1.3
	c0.7-0.2,1.4-0.4,2-0.6c-0.3,0.7-0.5,1.3-0.8,2c0.4,0.6,0.8,1.2,1.2,1.8c-0.7,0-1.4-0.1-2.1-0.1C717.3,317.9,716.8,318.4,716.4,319
	L716.4,319z M575.4,96.8c-2.1-0.5-4.2-0.9-6.3-1.4c-1.6,1.5-3.1,2.9-4.7,4.4c-0.2-2.1-0.4-4.3-0.6-6.4c-1.9-1-3.7-2.1-5.6-3.1
	c2-0.9,3.9-1.7,5.9-2.6c0.4-2.1,0.8-4.2,1.2-6.3c1.4,1.6,2.8,3.2,4.2,4.8c2.1-0.3,4.2-0.5,6.4-0.8c-1.1,1.8-2.2,3.7-3.3,5.5
	C573.6,92.9,574.5,94.9,575.4,96.8z M109.9,58c1.5,0.5,2.9,1,4.4,1.4c1.2-0.9,2.4-1.9,3.7-2.8c0,1.5,0,3.1,0,4.6
	c1.3,0.9,2.5,1.7,3.8,2.6c-1.5,0.5-2.9,0.9-4.4,1.4c-0.4,1.5-0.9,2.9-1.3,4.4c-0.9-1.2-1.8-2.5-2.7-3.7c-1.5,0-3.1,0.1-4.6,0.1
	c0.9-1.2,1.8-2.5,2.7-3.7C110.9,60.9,110.4,59.4,109.9,58L109.9,58z M672.7,0.8c0.8,0.8,1.6,1.6,2.4,2.3c1.1-0.2,2.2-0.4,3.3-0.7
	c-0.5,1-1,2-1.5,3c0.6,1,1.1,2,1.7,2.9c-1.1-0.2-2.2-0.3-3.3-0.5c-0.8,0.8-1.5,1.7-2.3,2.5c-0.2-1.1-0.4-2.2-0.6-3.3
	c-1-0.5-2-0.9-3.1-1.4c1-0.5,2-1.1,3-1.6C672.5,3,672.6,1.9,672.7,0.8L672.7,0.8z M9.1,90.6c1.8-0.5,3.5-1,5.3-1.5
	c0.6-1.7,1.2-3.5,1.8-5.2c1,1.5,2,3.1,3,4.6c1.8,0,3.7,0.1,5.5,0.1c-1.1,1.4-2.3,2.9-3.4,4.3c0.5,1.8,1.1,3.5,1.6,5.3
	c-1.7-0.6-3.4-1.3-5.2-1.9c-1.5,1-3,2.1-4.5,3.1c0.1-1.8,0.2-3.7,0.3-5.5C12.1,92.8,10.6,91.7,9.1,90.6z M389.5,89.7
	c1.7,1,3.3,2,5,3c1.8-0.8,3.5-1.6,5.3-2.4c-0.4,1.9-0.9,3.8-1.3,5.6c1.3,1.4,2.6,2.9,3.9,4.3c-1.9,0.2-3.9,0.3-5.8,0.5
	c-1,1.7-1.9,3.4-2.9,5c-0.7-1.8-1.5-3.6-2.2-5.4c-1.9-0.4-3.8-0.8-5.7-1.2c1.5-1.3,2.9-2.5,4.4-3.8
	C389.9,93.6,389.7,91.6,389.5,89.7z M105.3,199.6c0.2,0.6,0.5,1.3,0.7,1.9c0.7,0.2,1.3,0.3,2,0.5c-0.5,0.4-1.1,0.9-1.6,1.3
	c0.1,0.7,0.1,1.4,0.2,2.1c-0.6-0.4-1.2-0.7-1.7-1.1c-0.6,0.3-1.3,0.5-1.9,0.8c0.2-0.7,0.4-1.3,0.5-2c-0.4-0.5-0.9-1-1.3-1.6
	c0.7,0,1.4-0.1,2.1-0.1C104.6,200.8,104.9,200.2,105.3,199.6z M198.5,351c0.3-0.8,0.6-1.7,0.9-2.5c-0.5-0.7-1-1.4-1.6-2.1
	c0.9,0,1.8,0,2.6,0.1c0.5-0.7,1-1.4,1.5-2.2c0.3,0.8,0.5,1.7,0.8,2.5c0.8,0.3,1.7,0.5,2.5,0.8c-0.7,0.5-1.4,1-2.2,1.5
	c0,0.9,0,1.8,0,2.6c-0.7-0.5-1.4-1.1-2.1-1.6C200.2,350.5,199.4,350.8,198.5,351L198.5,351z M310.4,35.9c0.9-0.3,1.9-0.6,2.8-1
	c0.3-1,0.5-1.9,0.8-2.9c0.6,0.8,1.2,1.6,1.8,2.4c1,0,2-0.1,3-0.1c-0.6,0.8-1.1,1.6-1.7,2.5c0.3,0.9,0.7,1.9,1,2.8
	c-1-0.3-1.9-0.6-2.9-0.9c-0.8,0.6-1.6,1.2-2.4,1.9c0-1,0-2,0-3C312.1,37,311.3,36.4,310.4,35.9L310.4,35.9z M537.1,379.8
	c1.6,0.1,3.2,0.2,4.8,0.4c1-1.3,2-2.5,3-3.7c0.4,1.6,0.8,3.1,1.1,4.7c1.5,0.6,3,1.2,4.5,1.7c-1.4,0.8-2.7,1.7-4.1,2.5
	c-0.1,1.6-0.2,3.2-0.2,4.8c-1.2-1-2.4-2.1-3.7-3.1c-1.6,0.4-3.1,0.8-4.7,1.3c0.6-1.5,1.2-3,1.8-4.5
	C538.8,382.5,537.9,381.1,537.1,379.8L537.1,379.8z M413.5,239.5c-0.2,0.5-0.5,1.1-0.7,1.6c0.3,0.5,0.6,1,1,1.5
	c-0.6,0-1.2-0.1-1.8-0.1c-0.4,0.5-0.7,0.9-1.1,1.4c-0.1-0.6-0.3-1.1-0.4-1.7c-0.6-0.2-1.1-0.4-1.7-0.6c0.5-0.3,1-0.6,1.5-0.9
	c0-0.6,0.1-1.2,0.1-1.8c0.4,0.4,0.9,0.8,1.3,1.2C412.3,239.8,412.9,239.7,413.5,239.5L413.5,239.5z M731.8,378.3c-1.7,1-3.4,2-5.1,3
	c-0.2,2-0.3,3.9-0.5,5.9c-1.5-1.3-2.9-2.6-4.4-4c-1.9,0.5-3.8,0.9-5.8,1.4c0.8-1.8,1.6-3.6,2.4-5.4c-1-1.7-2.1-3.4-3.1-5.1
	c2,0.2,3.9,0.4,5.9,0.6c1.3-1.5,2.6-3,3.9-4.5c0.4,1.9,0.8,3.9,1.2,5.8C728.1,376.8,729.9,377.5,731.8,378.3L731.8,378.3z
	 M508.6,16.6c-0.6,0.3-1.2,0.6-1.8,0.9c-0.1,0.7-0.2,1.4-0.3,2c-0.5-0.5-1-1-1.4-1.5c-0.7,0.1-1.3,0.2-2,0.3c0.3-0.6,0.6-1.2,1-1.8
	c-0.3-0.6-0.6-1.2-1-1.8c0.7,0.1,1.3,0.2,2,0.4c0.5-0.5,1-1,1.4-1.5c0.1,0.7,0.2,1.4,0.3,2C507.4,15.9,508,16.3,508.6,16.6
	L508.6,16.6z M535.3,282.6c-1.5-1.2-3.1-2.4-4.6-3.6c-1.9,0.6-3.7,1.2-5.6,1.7c0.7-1.8,1.3-3.7,2-5.5c-1.1-1.6-2.3-3.2-3.4-4.8
	c1.9,0.1,3.9,0.1,5.8,0.2c1.2-1.6,2.3-3.1,3.5-4.7c0.5,1.9,1.1,3.7,1.6,5.6c1.8,0.6,3.7,1.2,5.5,1.9c-1.6,1.1-3.2,2.2-4.8,3.3
	C535.3,278.7,535.3,280.7,535.3,282.6L535.3,282.6z M484,138.5c-0.4,1.3-0.7,2.6-1.1,3.9c0.9,1,1.7,2.1,2.6,3.1
	c-1.3,0.1-2.7,0.1-4,0.2c-0.7,1.1-1.4,2.3-2.1,3.4c-0.5-1.3-0.9-2.5-1.4-3.8c-1.3-0.3-2.6-0.6-3.9-1c1.1-0.8,2.1-1.7,3.2-2.5
	c-0.1-1.3-0.2-2.7-0.3-4c1.1,0.7,2.2,1.5,3.4,2.2C481.5,139.5,482.8,139,484,138.5L484,138.5z M610.1,11.3c-0.5,0.2-1.1,0.4-1.6,0.6
	c-0.1,0.6-0.3,1.1-0.4,1.7c-0.4-0.5-0.7-0.9-1.1-1.4c-0.6,0-1.2,0.1-1.7,0.1c0.3-0.5,0.7-1,1-1.5c-0.2-0.5-0.4-1.1-0.6-1.6
	c0.6,0.2,1.1,0.3,1.7,0.5c0.5-0.4,0.9-0.7,1.4-1.1c0,0.6,0,1.2,0.1,1.8C609.1,10.6,609.6,10.9,610.1,11.3z M588.5,45.2
	c0.4-0.7,0.9-1.4,1.3-2.2c-0.3-0.8-0.7-1.5-1-2.3c0.8,0.2,1.6,0.4,2.5,0.6c0.6-0.6,1.3-1.1,1.9-1.7c0.1,0.8,0.1,1.7,0.2,2.5
	c0.7,0.4,1.5,0.8,2.2,1.3c-0.8,0.3-1.6,0.6-2.3,1c-0.2,0.8-0.4,1.6-0.5,2.5c-0.5-0.6-1.1-1.3-1.6-1.9
	C590.1,45,589.3,45.1,588.5,45.2z M47.9,371.4c-0.5-0.5-0.9-0.9-1.4-1.4c-0.6,0.1-1.3,0.2-1.9,0.4c0.3-0.6,0.6-1.2,0.9-1.8
	c-0.3-0.6-0.6-1.2-0.9-1.7c0.6,0.1,1.3,0.2,1.9,0.3c0.5-0.5,0.9-0.9,1.4-1.4c0.1,0.6,0.2,1.3,0.3,1.9c0.6,0.3,1.2,0.6,1.8,0.9
	c-0.6,0.3-1.2,0.6-1.8,0.9C48.1,370.1,48,370.8,47.9,371.4L47.9,371.4z M535.6,182.3c0.9,1.4,1.7,2.9,2.6,4.3
	c1.7,0.1,3.4,0.2,5.1,0.3c-1.1,1.3-2.2,2.6-3.3,3.8c0.4,1.6,0.8,3.3,1.3,4.9c-1.6-0.7-3.1-1.3-4.7-2c-1.4,0.9-2.9,1.8-4.3,2.7
	c0.1-1.7,0.3-3.4,0.4-5.1c-1.3-1.1-2.6-2.2-3.9-3.2c1.6-0.4,3.3-0.8,4.9-1.1C534.4,185.5,535,183.9,535.6,182.3L535.6,182.3z
	 M363.1,186.9c-1.8-0.4-3.5-0.8-5.3-1.2c-1.3,1.2-2.6,2.4-4,3.6c-0.2-1.8-0.3-3.6-0.5-5.4c-1.6-0.9-3.1-1.8-4.7-2.6
	c1.7-0.7,3.3-1.4,5-2.1c0.4-1.8,0.7-3.5,1.1-5.3c1.2,1.4,2.4,2.7,3.5,4.1c1.8-0.2,3.6-0.4,5.3-0.6c-0.9,1.5-1.8,3.1-2.8,4.6
	C361.6,183.6,362.3,185.3,363.1,186.9z M738.7,125.8c-0.7,1.5-1.5,3.1-2.2,4.6c0.8,1.5,1.7,2.9,2.5,4.4c-1.7-0.2-3.4-0.4-5.1-0.7
	c-1.1,1.3-2.3,2.5-3.4,3.8c-0.3-1.7-0.6-3.3-0.9-5c-1.6-0.7-3.1-1.4-4.7-2.1c1.5-0.8,3-1.6,4.5-2.4c0.2-1.7,0.4-3.4,0.5-5.1
	c1.2,1.2,2.5,2.3,3.7,3.5C735.3,126.5,737,126.2,738.7,125.8z M82.6,258.8c-1.1-0.3-2.3-0.6-3.4-0.9c-0.9,0.8-1.8,1.5-2.7,2.3
	c-0.1-1.2-0.1-2.4-0.2-3.5c-1-0.6-2-1.2-3-1.9c1.1-0.4,2.2-0.8,3.3-1.2c0.3-1.1,0.6-2.3,0.9-3.4c0.7,0.9,1.5,1.8,2.2,2.8
	c1.2-0.1,2.3-0.2,3.5-0.2c-0.6,1-1.3,2-1.9,2.9C81.7,256.6,82.1,257.7,82.6,258.8z M413.5,148.7c-1.6,0.2-3.2,0.3-4.7,0.5
	c-0.8,1.4-1.5,2.8-2.3,4.2c-0.7-1.5-1.3-2.9-2-4.4c-1.6-0.3-3.1-0.6-4.7-0.9c1.2-1.1,2.4-2.1,3.5-3.2c-0.2-1.6-0.4-3.2-0.6-4.7
	c1.4,0.8,2.8,1.6,4.1,2.4c1.4-0.7,2.9-1.4,4.3-2.1c-0.3,1.6-0.7,3.1-1,4.7C411.3,146.4,412.4,147.5,413.5,148.7L413.5,148.7z"/>
</svg>
